<svg xmlns="http://www.w3.org/2000/svg" viewBox="0 0 203.35 211.96"><defs><style>.cls-1{fill:none;stroke:#1b1449;stroke-linecap:round;stroke-linejoin:round;stroke-width:8.5px;}.cls-2{fill:#55bb70;}.cls-3{fill:#fff;}.cls-4{fill:#1b1449;}</style></defs><g id="Layer_2" data-name="Layer 2"><g id="Layer_1-2" data-name="Layer 1"><polyline class="cls-1" points="79.9 183.47 79.9 207.71 67.96 207.71"/><polyline class="cls-1" points="129.13 183.47 129.13 207.71 117.18 207.71"/><path class="cls-2" d="M77.64,13.87l-73.88,128a27.75,27.75,0,0,0,24,41.62H175.56a27.75,27.75,0,0,0,24-41.62l-73.89-128A27.75,27.75,0,0,0,77.64,13.87Z"/><circle class="cls-3" cx="74.52" cy="105.98" r="22.64"/><circle class="cls-3" cx="128.82" cy="105.98" r="22.64"/><circle class="cls-4" cx="128.82" cy="105.98" r="14.2"/><circle class="cls-4" cx="74.52" cy="105.98" r="14.2"/><polyline class="cls-1" points="115.63 128.59 101.67 138.27 87.71 128.59"/><path class="cls-1" d="M130.35,69.09a23.94,23.94,0,0,1-14.6,5C105.7,74,94.27,69,94.9,59c.29-4.76,3.19-8.41,7-8.41h-.37c3.77,0,6.66,3.65,7,8.41.62,10-10.8,15-20.85,15a23.9,23.9,0,0,1-14.6-5"/></g></g></svg>